STARTFONT 2.1
FONT -FontForge-Saira Stencil One-Book-R-Normal--17-120-100-100-P-93-ISO10646-1
SIZE 12 100 100
FONTBOUNDINGBOX 17 17 0 -3
COMMENT "Generated by fontforge, http://fontforge.sourceforge.net"
COMMENT "Copyright 2019 The Saira Stencil Project Authors (https://github.com/Omnibus-Type/Saira)"
STARTPROPERTIES 39
FOUNDRY "FontForge"
FAMILY_NAME "Saira Stencil One"
WEIGHT_NAME "Book"
SLANT "R"
SETWIDTH_NAME "Normal"
ADD_STYLE_NAME ""
PIXEL_SIZE 17
POINT_SIZE 120
RESOLUTION_X 100
RESOLUTION_Y 100
SPACING "P"
AVERAGE_WIDTH 93
CHARSET_REGISTRY "ISO10646"
CHARSET_ENCODING "1"
FONTNAME_REGISTRY ""
CHARSET_COLLECTIONS "ISO10646-1"
FONT_NAME "SairaStencilOne-Regular"
FACE_NAME "Saira Stencil One Regular"
COPYRIGHT "Copyright 2019 The Saira Stencil Project Authors (https://github.com/Omnibus-Type/Saira)"
FONT_VERSION "1.004"
FONT_ASCENT 14
FONT_DESCENT 3
UNDERLINE_POSITION -2
UNDERLINE_THICKNESS 2
X_HEIGHT 8
CAP_HEIGHT 11
RAW_ASCENT 800
RAW_DESCENT 200
NORM_SPACE 4
RELATIVE_WEIGHT 40
RELATIVE_SETWIDTH 50
SUPERSCRIPT_X 0
SUPERSCRIPT_Y 5
SUPERSCRIPT_SIZE 10
SUBSCRIPT_X 0
SUBSCRIPT_Y 1
SUBSCRIPT_SIZE 10
AVG_LOWERCASE_WIDTH 91
AVG_UPPERCASE_WIDTH 111
ENDPROPERTIES
CHARS 95
STARTCHAR space
ENCODING 32
SWIDTH 260 0
DWIDTH 4 0
BBX 1 1 0 0
BITMAP
00
ENDCHAR
STARTCHAR exclam
ENCODING 33
SWIDTH 363 0
DWIDTH 6 0
BBX 4 12 1 0
BITMAP
F0
F0
70
70
70
70
70
70
00
00
70
70
ENDCHAR
STARTCHAR quotedbl
ENCODING 34
SWIDTH 525 0
DWIDTH 9 0
BBX 7 5 1 7
BITMAP
EE
EE
EE
EE
EE
ENDCHAR
STARTCHAR numbersign
ENCODING 35
SWIDTH 700 0
DWIDTH 12 0
BBX 10 12 1 0
BITMAP
1980
1980
1980
FFC0
FFC0
3300
0000
0000
FF80
6600
6600
6600
ENDCHAR
STARTCHAR dollar
ENCODING 36
SWIDTH 539 0
DWIDTH 9 0
BBX 7 12 1 0
BITMAP
28
28
EE
EE
E0
FE
7E
0E
EE
EE
28
28
ENDCHAR
STARTCHAR percent
ENCODING 37
SWIDTH 898 0
DWIDTH 15 0
BBX 13 12 1 0
BITMAP
F860
D8C0
D8C0
D980
D980
FB00
0658
06C8
0CC8
18C8
18C8
3068
ENDCHAR
STARTCHAR ampersand
ENCODING 38
SWIDTH 739 0
DWIDTH 13 0
BBX 11 12 1 0
BITMAP
6F80
EF80
F080
E000
F000
7BE0
FBE0
E380
E380
F380
FF80
7F80
ENDCHAR
STARTCHAR quotesingle
ENCODING 39
SWIDTH 300 0
DWIDTH 5 0
BBX 3 5 1 7
BITMAP
E0
E0
E0
E0
E0
ENDCHAR
STARTCHAR parenleft
ENCODING 40
SWIDTH 374 0
DWIDTH 6 0
BBX 5 15 1 -2
BITMAP
38
70
60
E0
E0
E0
E0
00
E0
E0
E0
E0
60
30
38
ENDCHAR
STARTCHAR parenright
ENCODING 41
SWIDTH 374 0
DWIDTH 6 0
BBX 5 15 0 -2
BITMAP
E0
70
38
38
38
38
38
00
38
38
38
38
38
70
E0
ENDCHAR
STARTCHAR asterisk
ENCODING 42
SWIDTH 454 0
DWIDTH 8 0
BBX 6 6 1 6
BITMAP
30
FC
F8
78
BC
30
ENDCHAR
STARTCHAR plus
ENCODING 43
SWIDTH 540 0
DWIDTH 9 0
BBX 7 7 1 1
BITMAP
38
38
38
FE
FE
38
38
ENDCHAR
STARTCHAR comma
ENCODING 44
SWIDTH 330 0
DWIDTH 6 0
BBX 4 4 1 -2
BITMAP
F0
F0
60
E0
ENDCHAR
STARTCHAR hyphen
ENCODING 45
SWIDTH 379 0
DWIDTH 6 0
BBX 5 2 1 4
BITMAP
F8
F8
ENDCHAR
STARTCHAR period
ENCODING 46
SWIDTH 330 0
DWIDTH 6 0
BBX 4 2 1 0
BITMAP
F0
F0
ENDCHAR
STARTCHAR slash
ENCODING 47
SWIDTH 429 0
DWIDTH 7 0
BBX 7 14 0 -1
BITMAP
06
0E
0E
0C
1C
1C
38
38
30
70
70
60
E0
E0
ENDCHAR
STARTCHAR zero
ENCODING 48
SWIDTH 660 0
DWIDTH 11 0
BBX 9 12 1 0
BITMAP
6F00
EF80
E780
E380
E380
E380
E380
E380
E380
F380
FB80
7B00
ENDCHAR
STARTCHAR one
ENCODING 49
SWIDTH 402 0
DWIDTH 7 0
BBX 6 12 0 0
BITMAP
3C
7C
FC
FC
3C
3C
3C
3C
3C
3C
3C
3C
ENDCHAR
STARTCHAR two
ENCODING 50
SWIDTH 614 0
DWIDTH 10 0
BBX 9 12 1 0
BITMAP
F600
F700
F780
0780
0780
3F00
7E00
F800
E000
EF80
EF80
EF80
ENDCHAR
STARTCHAR three
ENCODING 51
SWIDTH 610 0
DWIDTH 10 0
BBX 9 12 1 0
BITMAP
F600
F700
8F00
0700
0700
3E00
3F00
0700
0780
C780
F700
F600
ENDCHAR
STARTCHAR four
ENCODING 52
SWIDTH 654 0
DWIDTH 11 0
BBX 10 12 1 0
BITMAP
1E00
1C00
3C00
7800
7800
F300
E700
EFC0
DFC0
DFC0
0700
0700
ENDCHAR
STARTCHAR five
ENCODING 53
SWIDTH 628 0
DWIDTH 11 0
BBX 9 12 1 0
BITMAP
EF00
EF00
E000
E000
E000
FF00
FF80
0780
0780
C780
FF00
FE00
ENDCHAR
STARTCHAR six
ENCODING 54
SWIDTH 662 0
DWIDTH 11 0
BBX 9 12 1 0
BITMAP
2F80
6F80
E980
E000
E000
EF80
EF80
E380
E380
F380
FB80
7B00
ENDCHAR
STARTCHAR seven
ENCODING 55
SWIDTH 576 0
DWIDTH 10 0
BBX 8 12 1 0
BITMAP
FF
FF
00
0F
0E
1E
1C
3C
3C
38
78
70
ENDCHAR
STARTCHAR eight
ENCODING 56
SWIDTH 676 0
DWIDTH 11 0
BBX 10 12 1 0
BITMAP
6F00
EF80
E3C0
E3C0
F380
7F00
FF80
E3C0
E3C0
F3C0
FF80
7F00
ENDCHAR
STARTCHAR nine
ENCODING 57
SWIDTH 662 0
DWIDTH 11 0
BBX 9 12 1 0
BITMAP
6F00
EF80
E380
E380
E380
FB80
FB80
0380
0380
EB80
FB80
FB00
ENDCHAR
STARTCHAR colon
ENCODING 58
SWIDTH 330 0
DWIDTH 6 0
BBX 4 9 1 0
BITMAP
F0
F0
00
00
00
00
00
F0
F0
ENDCHAR
STARTCHAR semicolon
ENCODING 59
SWIDTH 330 0
DWIDTH 6 0
BBX 4 11 1 -2
BITMAP
F0
F0
00
00
00
00
00
F0
F0
60
E0
ENDCHAR
STARTCHAR less
ENCODING 60
SWIDTH 541 0
DWIDTH 9 0
BBX 7 7 1 1
BITMAP
02
1E
FE
F0
FC
3E
06
ENDCHAR
STARTCHAR equal
ENCODING 61
SWIDTH 540 0
DWIDTH 9 0
BBX 7 6 1 1
BITMAP
FE
FE
00
00
FE
FE
ENDCHAR
STARTCHAR greater
ENCODING 62
SWIDTH 541 0
DWIDTH 9 0
BBX 7 7 1 1
BITMAP
80
F0
FE
0E
3E
F8
C0
ENDCHAR
STARTCHAR question
ENCODING 63
SWIDTH 521 0
DWIDTH 9 0
BBX 7 12 1 0
BITMAP
EC
EE
8E
0E
1E
7C
70
70
00
00
70
70
ENDCHAR
STARTCHAR at
ENCODING 64
SWIDTH 944 0
DWIDTH 16 0
BBX 14 14 1 -2
BITMAP
3FF0
6018
400C
CFCC
CFCC
C0E4
C0E4
0EE0
CCE4
CEEC
CEF8
C000
4000
3FE0
ENDCHAR
STARTCHAR A
ENCODING 65
SWIDTH 687 0
DWIDTH 12 0
BBX 12 12 0 0
BITMAP
1700
1700
1F80
1B80
3B80
3BC0
39C0
7FC0
77E0
77E0
F0E0
F0F0
ENDCHAR
STARTCHAR B
ENCODING 66
SWIDTH 670 0
DWIDTH 11 0
BBX 10 12 1 0
BITMAP
FF00
FF80
F3C0
F3C0
F380
FF00
FF80
F3C0
F3C0
F3C0
FF80
FF00
ENDCHAR
STARTCHAR C
ENCODING 67
SWIDTH 568 0
DWIDTH 10 0
BBX 8 12 1 0
BITMAP
2F
EF
E8
E0
E0
E0
E0
E0
E0
F9
7F
3F
ENDCHAR
STARTCHAR D
ENCODING 68
SWIDTH 680 0
DWIDTH 12 0
BBX 10 12 1 0
BITMAP
FF00
FF80
F7C0
F3C0
F3C0
F3C0
F3C0
F3C0
F3C0
F7C0
FF80
FF00
ENDCHAR
STARTCHAR E
ENCODING 69
SWIDTH 616 0
DWIDTH 10 0
BBX 9 12 1 0
BITMAP
FF80
FF80
F000
F000
F000
FF00
FF00
F000
F000
F000
FF80
FF80
ENDCHAR
STARTCHAR F
ENCODING 70
SWIDTH 576 0
DWIDTH 10 0
BBX 8 12 1 0
BITMAP
FF
FF
F0
F0
F0
FF
FF
F0
F0
F0
F0
F0
ENDCHAR
STARTCHAR G
ENCODING 71
SWIDTH 660 0
DWIDTH 11 0
BBX 9 12 1 0
BITMAP
2F80
6F80
E880
E000
E000
E780
E780
E380
E380
F380
7B80
3B80
ENDCHAR
STARTCHAR H
ENCODING 72
SWIDTH 716 0
DWIDTH 12 0
BBX 10 12 1 0
BITMAP
F1C0
F1C0
F1C0
F1C0
F1C0
FFC0
FFC0
F1C0
F1C0
F1C0
F1C0
F1C0
ENDCHAR
STARTCHAR I
ENCODING 73
SWIDTH 330 0
DWIDTH 6 0
BBX 4 12 1 0
BITMAP
F0
F0
F0
F0
F0
F0
F0
F0
F0
F0
F0
F0
ENDCHAR
STARTCHAR J
ENCODING 74
SWIDTH 425 0
DWIDTH 7 0
BBX 6 12 0 0
BITMAP
1C
1C
1C
1C
1C
1C
1C
1C
1C
7C
FC
F8
ENDCHAR
STARTCHAR K
ENCODING 75
SWIDTH 683 0
DWIDTH 12 0
BBX 11 12 1 0
BITMAP
F1E0
F3C0
F780
F700
FE00
FE00
FE00
FF00
F700
F780
F3C0
F1E0
ENDCHAR
STARTCHAR L
ENCODING 76
SWIDTH 541 0
DWIDTH 9 0
BBX 8 12 1 0
BITMAP
F0
F0
F0
F0
F0
F0
F0
F0
F0
F0
FF
FF
ENDCHAR
STARTCHAR M
ENCODING 77
SWIDTH 885 0
DWIDTH 15 0
BBX 13 12 1 0
BITMAP
E038
7078
F078
F8F8
B8F8
FDF8
DDF8
DFB8
EEB8
EFB8
E738
E738
ENDCHAR
STARTCHAR N
ENCODING 78
SWIDTH 716 0
DWIDTH 12 0
BBX 10 12 1 0
BITMAP
F1C0
71C0
F9C0
B9C0
FDC0
DFC0
EEC0
EF40
E740
E7C0
E380
E3C0
ENDCHAR
STARTCHAR O
ENCODING 79
SWIDTH 698 0
DWIDTH 12 0
BBX 10 12 1 0
BITMAP
2F00
EFC0
EBC0
E1C0
E1C0
E1C0
E1C0
E1C0
E1C0
F1C0
FDC0
7D00
ENDCHAR
STARTCHAR P
ENCODING 80
SWIDTH 645 0
DWIDTH 11 0
BBX 10 12 1 0
BITMAP
FF00
FF80
F780
F3C0
F3C0
F780
FF80
FF00
F000
F000
F000
F000
ENDCHAR
STARTCHAR Q
ENCODING 81
SWIDTH 698 0
DWIDTH 12 0
BBX 12 14 1 -2
BITMAP
2F00
EFC0
EBC0
E1C0
E1C0
E1C0
E1C0
E1C0
E1C0
F1C0
FD80
7DC0
01C0
01F0
ENDCHAR
STARTCHAR R
ENCODING 82
SWIDTH 674 0
DWIDTH 11 0
BBX 10 12 1 0
BITMAP
FF00
FF80
F3C0
F3C0
F3C0
F3C0
FF80
FF00
F780
F780
F380
F3C0
ENDCHAR
STARTCHAR S
ENCODING 83
SWIDTH 612 0
DWIDTH 10 0
BBX 9 12 1 0
BITMAP
6F00
EF00
E100
E000
F800
FF00
FF80
0F80
0780
8780
FF00
FE00
ENDCHAR
STARTCHAR T
ENCODING 84
SWIDTH 581 0
DWIDTH 10 0
BBX 10 12 0 0
BITMAP
FFC0
FFC0
0000
1E00
1E00
1E00
1E00
1E00
1E00
1E00
1E00
1E00
ENDCHAR
STARTCHAR U
ENCODING 85
SWIDTH 690 0
DWIDTH 12 0
BBX 10 12 1 0
BITMAP
E3C0
E3C0
E3C0
E3C0
E3C0
E3C0
E3C0
E3C0
E3C0
FFC0
7F80
3F00
ENDCHAR
STARTCHAR V
ENCODING 86
SWIDTH 663 0
DWIDTH 11 0
BBX 11 12 0 0
BITMAP
F0E0
71E0
71C0
71C0
79C0
3BC0
3B80
3F80
1D80
1D00
1D00
1F00
ENDCHAR
STARTCHAR W
ENCODING 87
SWIDTH 996 0
DWIDTH 17 0
BBX 17 12 0 0
BITMAP
F1C780
73E700
73E700
73E700
73E700
7B7E00
3F7E00
3B7600
3B7600
3A3600
1E3C00
1E3C00
ENDCHAR
STARTCHAR X
ENCODING 88
SWIDTH 678 0
DWIDTH 12 0
BBX 11 12 0 0
BITMAP
F1E0
79C0
3FC0
3D80
1E80
0E00
0F00
1780
3F80
3BC0
79E0
F1E0
ENDCHAR
STARTCHAR Y
ENCODING 89
SWIDTH 633 0
DWIDTH 11 0
BBX 11 12 0 0
BITMAP
F1E0
71C0
7BC0
3B80
3B80
3D00
1D00
1E00
0E00
0E00
0E00
0E00
ENDCHAR
STARTCHAR Z
ENCODING 90
SWIDTH 618 0
DWIDTH 11 0
BBX 9 12 1 0
BITMAP
FF80
FF80
FF80
0F00
1E00
3C00
3C00
7800
F000
F780
EF80
DF80
ENDCHAR
STARTCHAR bracketleft
ENCODING 91
SWIDTH 399 0
DWIDTH 7 0
BBX 5 16 1 -3
BITMAP
F8
F8
E0
E0
E0
E0
E0
E0
E0
E0
E0
E0
E0
E0
F8
F8
ENDCHAR
STARTCHAR backslash
ENCODING 92
SWIDTH 429 0
DWIDTH 7 0
BBX 7 14 0 -1
BITMAP
E0
E0
60
70
70
30
38
38
1C
1C
0C
0E
0E
06
ENDCHAR
STARTCHAR bracketright
ENCODING 93
SWIDTH 399 0
DWIDTH 7 0
BBX 5 16 1 -3
BITMAP
F8
F8
38
38
38
38
38
38
38
38
38
38
38
38
F8
F8
ENDCHAR
STARTCHAR asciicircum
ENCODING 94
SWIDTH 426 0
DWIDTH 7 0
BBX 7 6 0 8
BITMAP
38
38
3C
6C
6E
E6
ENDCHAR
STARTCHAR underscore
ENCODING 95
SWIDTH 400 0
DWIDTH 7 0
BBX 7 2 0 -3
BITMAP
FE
FE
ENDCHAR
STARTCHAR grave
ENCODING 96
SWIDTH 311 0
DWIDTH 5 0
BBX 5 2 0 10
BITMAP
F0
38
ENDCHAR
STARTCHAR a
ENCODING 97
SWIDTH 558 0
DWIDTH 9 0
BBX 8 9 1 0
BITMAP
FC
FE
0F
0F
FF
FF
EF
FF
FF
ENDCHAR
STARTCHAR b
ENCODING 98
SWIDTH 578 0
DWIDTH 10 0
BBX 8 13 1 0
BITMAP
E0
E0
E0
E0
EE
EF
EF
E7
E7
E7
EF
EF
EE
ENDCHAR
STARTCHAR c
ENCODING 99
SWIDTH 465 0
DWIDTH 8 0
BBX 6 9 1 0
BITMAP
6C
EC
F4
E0
E0
E0
F4
FC
7C
ENDCHAR
STARTCHAR d
ENCODING 100
SWIDTH 578 0
DWIDTH 10 0
BBX 8 13 1 0
BITMAP
07
07
07
07
77
F7
F7
E7
E7
E7
F7
F7
77
ENDCHAR
STARTCHAR e
ENCODING 101
SWIDTH 557 0
DWIDTH 9 0
BBX 8 9 1 0
BITMAP
6E
EE
EF
EF
EF
E0
E1
FE
7E
ENDCHAR
STARTCHAR f
ENCODING 102
SWIDTH 437 0
DWIDTH 7 0
BBX 7 13 0 0
BITMAP
1E
3E
38
38
FE
FE
00
38
38
38
38
38
38
ENDCHAR
STARTCHAR g
ENCODING 103
SWIDTH 578 0
DWIDTH 10 0
BBX 8 12 1 -3
BITMAP
77
F7
F7
E7
E7
E7
F7
F7
77
0F
FE
FC
ENDCHAR
STARTCHAR h
ENCODING 104
SWIDTH 588 0
DWIDTH 10 0
BBX 8 13 1 0
BITMAP
E0
E0
E0
E0
EE
EF
EF
E7
E7
E7
E7
E7
E7
ENDCHAR
STARTCHAR i
ENCODING 105
SWIDTH 299 0
DWIDTH 5 0
BBX 3 13 1 0
BITMAP
E0
E0
00
00
E0
E0
E0
E0
E0
E0
E0
E0
E0
ENDCHAR
STARTCHAR j
ENCODING 106
SWIDTH 299 0
DWIDTH 5 0
BBX 4 16 0 -3
BITMAP
70
70
00
00
70
70
70
70
70
70
70
70
70
70
F0
E0
ENDCHAR
STARTCHAR k
ENCODING 107
SWIDTH 576 0
DWIDTH 10 0
BBX 9 13 1 0
BITMAP
E000
E000
E000
E000
E780
EF00
EE00
EE00
EC00
EE00
EE00
EF00
E780
ENDCHAR
STARTCHAR l
ENCODING 108
SWIDTH 299 0
DWIDTH 5 0
BBX 3 13 1 0
BITMAP
E0
E0
E0
E0
E0
E0
E0
E0
E0
E0
E0
E0
E0
ENDCHAR
STARTCHAR m
ENCODING 109
SWIDTH 857 0
DWIDTH 15 0
BBX 13 9 1 0
BITMAP
EEF0
EFF0
EF78
E778
E778
E778
E778
E778
E778
ENDCHAR
STARTCHAR n
ENCODING 110
SWIDTH 588 0
DWIDTH 10 0
BBX 8 9 1 0
BITMAP
EE
EF
EF
E7
E7
E7
E7
E7
E7
ENDCHAR
STARTCHAR o
ENCODING 111
SWIDTH 572 0
DWIDTH 10 0
BBX 8 9 1 0
BITMAP
6E
EF
EF
E7
E7
E7
E7
F7
76
ENDCHAR
STARTCHAR p
ENCODING 112
SWIDTH 578 0
DWIDTH 10 0
BBX 8 12 1 -3
BITMAP
EE
EF
EF
E7
E7
E7
EF
EF
EE
E0
E0
E0
ENDCHAR
STARTCHAR q
ENCODING 113
SWIDTH 578 0
DWIDTH 10 0
BBX 8 12 1 -3
BITMAP
77
F7
F7
E7
E7
E7
F7
F7
77
07
07
07
ENDCHAR
STARTCHAR r
ENCODING 114
SWIDTH 425 0
DWIDTH 7 0
BBX 6 9 1 0
BITMAP
EC
EC
E8
E0
E0
E0
E0
E0
E0
ENDCHAR
STARTCHAR s
ENCODING 115
SWIDTH 498 0
DWIDTH 8 0
BBX 7 9 1 0
BITMAP
FC
FC
E0
F8
FE
3E
8E
EE
EC
ENDCHAR
STARTCHAR t
ENCODING 116
SWIDTH 427 0
DWIDTH 7 0
BBX 7 12 0 0
BITMAP
38
38
38
FE
FE
00
38
38
38
38
38
38
ENDCHAR
STARTCHAR u
ENCODING 117
SWIDTH 586 0
DWIDTH 10 0
BBX 8 9 1 0
BITMAP
E7
E7
E7
E7
E7
E7
F7
F7
77
ENDCHAR
STARTCHAR v
ENCODING 118
SWIDTH 551 0
DWIDTH 9 0
BBX 9 9 0 0
BITMAP
F380
7380
7300
7700
7F00
3B00
3A00
3A00
1E00
ENDCHAR
STARTCHAR w
ENCODING 119
SWIDTH 846 0
DWIDTH 14 0
BBX 14 9 0 0
BITMAP
E39C
739C
779C
77F8
77D8
3FD8
3AD8
3AF0
3AF0
ENDCHAR
STARTCHAR x
ENCODING 120
SWIDTH 566 0
DWIDTH 10 0
BBX 10 9 0 0
BITMAP
F380
7F80
3B00
3D00
1E00
2E00
3F00
7780
F3C0
ENDCHAR
STARTCHAR y
ENCODING 121
SWIDTH 588 0
DWIDTH 10 0
BBX 8 12 1 -3
BITMAP
E7
E7
E7
E7
E7
E7
F7
F7
77
0F
7F
7E
ENDCHAR
STARTCHAR z
ENCODING 122
SWIDTH 534 0
DWIDTH 9 0
BBX 7 9 1 0
BITMAP
FE
FE
1E
3C
38
78
F0
EE
FE
ENDCHAR
STARTCHAR braceleft
ENCODING 123
SWIDTH 381 0
DWIDTH 6 0
BBX 6 15 0 -2
BITMAP
1C
38
38
38
38
38
70
80
F0
38
38
38
38
38
1C
ENDCHAR
STARTCHAR bar
ENCODING 124
SWIDTH 305 0
DWIDTH 5 0
BBX 3 16 1 -3
BITMAP
E0
E0
E0
E0
E0
E0
E0
E0
E0
E0
E0
E0
E0
E0
E0
E0
ENDCHAR
STARTCHAR braceright
ENCODING 125
SWIDTH 381 0
DWIDTH 6 0
BBX 6 15 0 -2
BITMAP
E0
70
38
38
38
38
3C
00
3C
38
38
38
38
70
E0
ENDCHAR
STARTCHAR asciitilde
ENCODING 126
SWIDTH 497 0
DWIDTH 8 0
BBX 7 2 1 4
BITMAP
FE
FC
ENDCHAR
ENDFONT
